<svg xmlns="http://www.w3.org/2000/svg" width="790.6667" height="165.3333">
    <defs>
        <clipPath id="a">
            <path d="M0 124h593V0H0z"/>
        </clipPath>
    </defs>
    <g clip-path="url(#a)" transform="matrix(1.33333 0 0 -1.33333 0 165.3333)">
        <path fill="#12254a" d="M575.116 59.2399c0-27.788-23.72-50.332-52.99-50.332h-246.02c-29.27 0-52.99 22.544-52.99 50.332s23.72 50.332 52.99 50.332h246.02c29.27 0 52.99-22.544 52.99-50.332"/>
        <path fill="#fff" d="M289.1089 61.6934c7.79 0 11.969 3.704 11.969 10.165 0 6.555-4.179 10.069-11.969 10.069h-9.12v-20.234zm-9.025-25.841c0-4.085-2.09-5.035-6.175-5.035h-2.09c-3.61 0-5.795.855-5.795 5.035v50.541c0 4.94 2.66 6.555 7.315 6.555h16.055c16.434 0 25.555-7.316 25.555-20.901 0-13.775-8.74-20.9-25.555-20.9h-9.31zM350.4766 63.4028c7.506 0 11.211 3.61 11.211 9.31 0 5.89-3.801 9.215-11.495 9.215h-10.45v-18.525zm24.131-26.22c1.9-2.375.095-6.365-6.936-6.365-4.085 0-6.174 1.804-9.309 5.7l-13.111 16.625h-5.32v-17.29c0-4.085-2.184-5.035-6.175-5.035h-2.09c-3.705 0-5.794.094-5.794 5.035v50.635c0 4.94 2.754 6.46 7.314 6.46h18.145c16.151 0 24.416-6.84 24.416-19.285 0-9.88-5.51-16.53-16.055-18.24zM387.1455 36.2324v51.871c0 4.37 2.09 5.51 6.08 5.51h1.899c4.085 0 6.176-1.14 6.176-5.51v-51.871c0-4.18-2.091-5.415-6.176-5.415h-1.899c-3.99 0-6.08 1.235-6.08 5.415M412.7002 62.0728c0 18.81 13.016 32.206 31.921 32.206 16.434 0 23.845-9.026 23.845-13.966 0-4.655-3.135-7.79-6.175-7.79-1.141 0-1.995.38-2.375 1.14-3.135 5.225-8.646 7.885-14.82 7.885-10.26 0-17.766-7.885-17.766-19.38 0-11.59 7.506-19.475 18.051-19.475 7.125 0 13.205 3.325 15.295 9.31.379.665.855.95 1.615.95 3.705 0 6.745-2.28 6.745-7.315 0-6.936-7.505-15.676-24.606-15.676-18.714 0-31.73 13.206-31.73 32.111M480.4346 37.7529v48.64c0 4.94 2.85 6.555 7.41 6.555h35.435c4.37 0 6.176-.855 5.7-4.56l-.38-3.135c-.475-3.895-2.85-4.465-7.22-4.465h-26.695v-12.445h20.995c3.99 0 6.555-.475 5.985-3.99l-.57-3.42c-.57-3.61-3.135-4.085-7.03-4.085h-19.38v-13.491h28.12c4.465 0 6.555-.569 6.555-4.274v-3.136c0-3.894-2.09-4.75-6.555-4.75h-34.96c-4.56 0-7.41 1.425-7.41 6.556M196.4139 18.4754c-.246.492-.43.922-.615 1.23-3.258 5.84-9.405 12.971-18.565 21.516l-.185.184-.123.123-.123.123h-.061c-4.119 3.935-6.762 6.64-7.869 7.992-2.029 2.582-2.459 5.225-1.352 7.869.799 2.029 3.688 6.27 8.729 12.725 2.644 3.443 4.795 6.209 6.332 8.238 11.189 14.939 16.107 24.467 14.57 28.586l-.554.984c-.368.553-1.413 1.106-3.012 1.598-1.598.492-3.688.553-6.209.246l-28.033-.184c-.43.184-1.106.122-1.967-.062s-1.291-.307-1.291-.307l-.492-.246-.369-.308c-.307-.184-.676-.553-1.045-1.045-.368-.492-.737-1.045-.983-1.721-3.074-7.869-6.517-15.123-10.39-21.885-2.397-3.996-4.61-7.5-6.639-10.451-2.029-2.951-3.688-5.103-5.041-6.516-1.352-1.414-2.582-2.521-3.688-3.382-1.107-.86-1.968-1.229-2.521-1.045-.615.123-1.106.246-1.66.369-.922.553-1.66 1.353-2.213 2.398-.553.983-.922 2.274-1.106 3.811-.185 1.537-.308 2.828-.369 3.935 0 1.106 0 2.643.061 4.672.062 2.028.123 3.381.123 4.057 0 2.459.062 5.164.123 8.053.123 2.89.185 5.164.246 6.886.061 1.659.123 3.442.123 5.348 0 1.906-.123 3.381-.369 4.426-.246 1.045-.553 2.09-1.045 3.135-.43.984-1.107 1.783-1.967 2.337-.861.553-1.967.983-3.258 1.291-3.443.799-7.808 1.168-13.156 1.29-12.049.123-19.795-.676-23.238-2.336-1.352-.737-2.582-1.659-3.688-2.889-1.168-1.414-1.353-2.213-.492-2.336 3.873-.553 6.639-1.967 8.238-4.18l.614-1.168c.431-.861.922-2.336 1.353-4.488.43-2.152.737-4.488.86-7.07.308-4.733.308-8.791 0-12.172-.307-3.381-.614-6.024-.922-7.869-.307-1.844-.737-3.381-1.291-4.549-.614-1.168-.983-1.906-1.168-2.152-.184-.245-.369-.43-.492-.491-.86-.308-1.721-.492-2.643-.492-.922 0-2.029.43-3.32 1.352-1.291.922-2.643 2.152-4.057 3.75-1.414 1.599-2.951 3.812-4.734 6.64-1.721 2.828-3.565 6.209-5.471 10.143l-1.475 2.767c-.984 1.844-2.275 4.487-3.996 7.93-1.66 3.442-3.135 6.824-4.426 10.082-.492 1.352-1.291 2.397-2.337 3.135l-.491.307c-.308.246-.861.554-1.537.8-.738.307-1.476.491-2.213.614l-26.619-.184c-2.705 0-4.549-.615-5.533-1.844l-.369-.554c-.184-.307-.307-.86-.307-1.536 0-.738.184-1.599.553-2.644 3.873-9.16 8.115-17.951 12.664-26.434 4.549-8.484 8.545-15.308 11.926-20.533 3.381-5.164 6.824-10.082 10.328-14.693 3.504-4.61 5.84-7.561 6.947-8.852 1.106-1.291 2.029-2.275 2.705-2.89l2.459-2.336c1.537-1.537 3.811-3.442 6.885-5.594 3.012-2.152 6.332-4.303 10.02-6.393 3.689-2.091 7.931-3.812 12.787-5.164 4.857-1.353 9.591-1.845 14.201-1.599h11.189c2.274.185 3.996.922 5.164 2.152l.369.492c.245.369.491.983.737 1.783.246.799.369 1.721.369 2.704-.061 2.767.123 5.287.615 7.562.492 2.213 1.045 3.934 1.66 5.041.614 1.107 1.291 2.09 2.09 2.889.799.799 1.352 1.23 1.66 1.414.307.185.553.246.799.369 1.537.492 3.381 0 5.471-1.537 2.09-1.537 4.058-3.381 5.963-5.656 1.845-2.213 4.058-4.733 6.64-7.561 2.582-2.766 4.856-4.857 6.823-6.209l1.968-1.168c1.291-.799 3.012-1.475 5.041-2.152 2.09-.676 3.873-.799 5.471-.491l24.897.368c2.459 0 4.365.431 5.718 1.23 1.352.799 2.151 1.721 2.459 2.705.246.983.246 2.09.061 3.319-.492 1.046-.676 1.906-.922 2.398"/>
    </g>
</svg>